# xmcd
#
# Track frame offsets: 
#        150
#        13273
#        35480
#        51620
#        65673
#        97499
#        111691
#        140279
#        156116
#        172936
#        189281
#        205835
#        222118
#        238474
#        256050
#        271859
#        291189
#        306813
#
# Disc length: 4303 seconds
#
# Revision: 0
# Processed by: cddbd v1.5.2PL0 Copyright (c) Steve Scherf et al.
# Submitted via: ExactAudioCopy v1.0b3
#
DISCID=1910cd12
DTITLE=Various Artist - Trance Dance Vol. 15 - CD 1
DYEAR=1900
DGENRE=
TTITLE0=Master Blaster - Hands Up (Radio Mix)
TTITLE1=Mauro Picotto - Iguana 2004 (Yoji Biomehanika's Hellhouse Remi
TTITLE1=x)
TTITLE2=ATB - Here With Me (Radio Edit)
TTITLE3=Clubbticket - You Got Me (Club Edit)
TTITLE4=Special D. - You (Club Mix)
TTITLE5=Freddy Fader Meets Locana - Bom, Bom - Suenan (Radio Edit)
TTITLE6=Mellow Trax - Hypnotizin'
TTITLE7=Bass-T - P.O.W.E.R. (Tune Up! Edit)
TTITLE8=Florida Inc. - I Need Your Lovin' (Bootleg Edit)
TTITLE9=Rave Allstars - More Than Words (Radio Edit)
TTITLE10=Starsplash - Hardstyle (Radio Mix)
TTITLE11=Clubraiders - Move Your Hands (DJ Andy Garcia Cut)
TTITLE12=Fun Brothers - Summer Dreaming (Central Seven Radio Mix)
TTITLE13=Bonito and Trooper - Journey Of Life (Radio Edit)
TTITLE14=Anaconda - I Hear The Sound (Club Edit)
TTITLE15=Stacccato - Changes (Club Edit)
TTITLE16=Scarf! - Odysee (Plazmatek Radio Mix)
TTITLE17=Galimar - Sunshine On A Rainy Day (Radio Mix)
EXTD=
EXTT0=
EXTT1=
EXTT2=
EXTT3=
EXTT4=
EXTT5=
EXTT6=
EXTT7=
EXTT8=
EXTT9=
EXTT10=
EXTT11=
EXTT12=
EXTT13=
EXTT14=
EXTT15=
EXTT16=
EXTT17=
PLAYORDER=
